REM DIRINDEX 1\2\4,1\2\5,1\2\6,1\3\7,1\3\8,1\3\9,1\3\10
REM DIRNAME folder01,folder02,folder03,folder04,folder05,folder06,folder07,folder08,folder09,folder10
TITLE ""
FILE "b_131.mp3" MP3
  TRACK 01 AUDIO
    TITLE "0:"
    INDEX 01 00:00:00
  TRACK 02 AUDIO
    TITLE "7:cjc057_08169"
    INDEX 01 00:00:13
  TRACK 03 AUDIO
    TITLE "0:"
    INDEX 01 00:01:30
  TRACK 04 AUDIO
    TITLE "8:cjc057_08170"
    INDEX 01 00:01:66
  TRACK 05 AUDIO
    TITLE "0:"
    INDEX 01 00:04:29
  TRACK 06 AUDIO
    TITLE "7:cjc057_08171"
    INDEX 01 00:05:42
  TRACK 07 AUDIO
    TITLE "0:"
    INDEX 01 00:06:63
  TRACK 08 AUDIO
    TITLE "8:cjc057_08172"
    INDEX 01 00:07:25
  TRACK 09 AUDIO
    TITLE "0:"
    INDEX 01 00:09:57
  TRACK 10 AUDIO
    TITLE "7:cjc057_08173"
    INDEX 01 00:10:66
  TRACK 11 AUDIO
    TITLE "0:"
    INDEX 01 00:11:68
  TRACK 12 AUDIO
    TITLE "8:cjc057_08174"
    INDEX 01 00:12:30
  TRACK 13 AUDIO
    TITLE "0:"
    INDEX 01 00:14:41
  TRACK 14 AUDIO
    TITLE "7:cjc057_08175"
    INDEX 01 00:15:52
  TRACK 15 AUDIO
    TITLE "0:"
    INDEX 01 00:17:12
  TRACK 16 AUDIO
    TITLE "8:cjc057_08176"
    INDEX 01 00:17:49
  TRACK 17 AUDIO
    TITLE "0:"
    INDEX 01 00:19:03
  TRACK 18 AUDIO
    TITLE "7:cjc057_08177"
    INDEX 01 00:20:14
  TRACK 19 AUDIO
    TITLE "0:"
    INDEX 01 00:21:23
  TRACK 20 AUDIO
    TITLE "8:cjc057_08178"
    INDEX 01 00:21:58
  TRACK 21 AUDIO
    TITLE "0:"
    INDEX 01 00:23:51
  TRACK 22 AUDIO
    TITLE "7:cjc057_08179"
    INDEX 01 00:24:61
  TRACK 23 AUDIO
    TITLE "0:"
    INDEX 01 00:25:74
  TRACK 24 AUDIO
    TITLE "8:cjc057_08180"
    INDEX 01 00:26:34
  TRACK 25 AUDIO
    TITLE "0:"
    INDEX 01 00:27:57
  TRACK 26 AUDIO
    TITLE "7:cjc057_08181"
    INDEX 01 00:28:64
  TRACK 27 AUDIO
    TITLE "0:"
    INDEX 01 00:29:66
  TRACK 28 AUDIO
    TITLE "8:cjc057_08182"
    INDEX 01 00:30:24
  TRACK 29 AUDIO
    TITLE "0:"
    INDEX 01 00:31:37
  TRACK 30 AUDIO
    TITLE "7:cjc057_08183"
    INDEX 01 00:32:47
  TRACK 31 AUDIO
    TITLE "0:"
    INDEX 01 00:33:50
  TRACK 32 AUDIO
    TITLE "8:cjc057_08184"
    INDEX 01 00:34:12
  TRACK 33 AUDIO
    TITLE "0:"
    INDEX 01 00:35:17
  TRACK 34 AUDIO
    TITLE "7:cjc057_08185"
    INDEX 01 00:36:29
  TRACK 35 AUDIO
    TITLE "0:"
    INDEX 01 00:37:63
  TRACK 36 AUDIO
    TITLE "8:cjc057_08186"
    INDEX 01 00:38:24
  TRACK 37 AUDIO
    TITLE "0:"
    INDEX 01 00:39:47
  TRACK 38 AUDIO
    TITLE "7:cjc057_08187"
    INDEX 01 00:40:58
  TRACK 39 AUDIO
    TITLE "0:"
    INDEX 01 00:41:61
  TRACK 40 AUDIO
    TITLE "8:cjc057_08188"
    INDEX 01 00:42:21
  TRACK 41 AUDIO
    TITLE "0:"
    INDEX 01 00:43:23
  TRACK 42 AUDIO
    TITLE "7:cjc057_08189"
    INDEX 01 00:44:36
  TRACK 43 AUDIO
    TITLE "0:"
    INDEX 01 00:45:51
  TRACK 44 AUDIO
    TITLE "8:cjc057_08190"
    INDEX 01 00:46:11
  TRACK 45 AUDIO
    TITLE "0:"
    INDEX 01 00:48:44
  TRACK 46 AUDIO
    TITLE "7:cjc057_08191"
    INDEX 01 00:49:55
  TRACK 47 AUDIO
    TITLE "0:"
    INDEX 01 00:51:05
  TRACK 48 AUDIO
    TITLE "8:cjc057_08192"
    INDEX 01 00:51:42
  TRACK 49 AUDIO
    TITLE "0:"
    INDEX 01 00:53:47
  TRACK 50 AUDIO
    TITLE "7:cjc057_08193"
    INDEX 01 00:54:58
  TRACK 51 AUDIO
    TITLE "0:"
    INDEX 01 00:56:00
  TRACK 52 AUDIO
    TITLE "8:cjc057_08194"
    INDEX 01 00:56:37
  TRACK 53 AUDIO
    TITLE "0:"
    INDEX 01 00:59:30
  TRACK 54 AUDIO
    TITLE "7:cjc057_08195"
    INDEX 01 01:00:39
  TRACK 55 AUDIO
    TITLE "0:"
    INDEX 01 01:01:48
  TRACK 56 AUDIO
    TITLE "8:cjc057_08196"
    INDEX 01 01:02:10
  TRACK 57 AUDIO
    TITLE "0:"
    INDEX 01 01:04:33
  TRACK 58 AUDIO
    TITLE "7:cjc057_08197"
    INDEX 01 01:05:42
  TRACK 59 AUDIO
    TITLE "0:"
    INDEX 01 01:06:49
  TRACK 60 AUDIO
    TITLE "8:cjc057_08198"
    INDEX 01 01:07:12
  TRACK 61 AUDIO
    TITLE "0:"
    INDEX 01 01:09:24
  TRACK 62 AUDIO
    TITLE "7:cjc057_08199"
    INDEX 01 01:10:33
  TRACK 63 AUDIO
    TITLE "0:"
    INDEX 01 01:11:51
  TRACK 64 AUDIO
    TITLE "8:cjc057_08200"
    INDEX 01 01:12:11
  TRACK 65 AUDIO
    TITLE "0:"
    INDEX 01 01:13:14
  TRACK 66 AUDIO
    TITLE "7:cjc057_08201"
    INDEX 01 01:14:27
  TRACK 67 AUDIO
    TITLE "0:"
    INDEX 01 01:15:39
  TRACK 68 AUDIO
    TITLE "8:cjc057_08202"
    INDEX 01 01:15:74
  TRACK 69 AUDIO
    TITLE "0:"
    INDEX 01 01:18:27
  TRACK 70 AUDIO
    TITLE "7:cjc057_08203"
    INDEX 01 01:19:38
  TRACK 71 AUDIO
    TITLE "0:"
    INDEX 01 01:20:42
  TRACK 72 AUDIO
    TITLE "8:cjc057_08204"
    INDEX 01 01:21:02
  TRACK 73 AUDIO
    TITLE "0:"
    INDEX 01 01:22:66
  TRACK 74 AUDIO
    TITLE "7:cjc057_08205"
    INDEX 01 01:24:02
  TRACK 75 AUDIO
    TITLE "0:"
    INDEX 01 01:25:27
  TRACK 76 AUDIO
    TITLE "8:cjc057_08206"
    INDEX 01 01:25:62
  TRACK 77 AUDIO
    TITLE "0:"
    INDEX 01 01:27:14
  TRACK 78 AUDIO
    TITLE "7:cjc057_08207"
    INDEX 01 01:28:24
  TRACK 79 AUDIO
    TITLE "0:"
    INDEX 01 01:29:39
  TRACK 80 AUDIO
    TITLE "8:cjc057_08208"
    INDEX 01 01:30:01
  TRACK 81 AUDIO
    TITLE "0:"
    INDEX 01 01:32:10
  TRACK 82 AUDIO
    TITLE "7:cjc057_08209"
    INDEX 01 01:33:21
  TRACK 83 AUDIO
    TITLE "0:"
    INDEX 01 01:34:36
  TRACK 84 AUDIO
    TITLE "8:cjc057_08210"
    INDEX 01 01:34:71
  TRACK 85 AUDIO
    TITLE "0:"
    INDEX 01 01:36:13
  TRACK 86 AUDIO
    TITLE "7:cjc057_08211"
    INDEX 01 01:37:24
  TRACK 87 AUDIO
    TITLE "0:"
    INDEX 01 01:38:26
  TRACK 88 AUDIO
    TITLE "8:cjc057_08212"
    INDEX 01 01:38:63
  TRACK 89 AUDIO
    TITLE "0:"
    INDEX 01 01:40:72
  TRACK 90 AUDIO
    TITLE "7:cjc057_08213"
    INDEX 01 01:42:08
  TRACK 91 AUDIO
    TITLE "0:"
    INDEX 01 01:43:13
  TRACK 92 AUDIO
    TITLE "8:cjc057_08214"
    INDEX 01 01:43:49
  TRACK 93 AUDIO
    TITLE "0:"
    INDEX 01 01:46:74
  TRACK 94 AUDIO
    TITLE "7:cjc057_08215"
    INDEX 01 01:48:11
  TRACK 95 AUDIO
    TITLE "0:"
    INDEX 01 01:49:33
  TRACK 96 AUDIO
    TITLE "8:cjc057_08216"
    INDEX 01 01:49:69
  TRACK 97 AUDIO
    TITLE "0:"
    INDEX 01 01:52:38
  TRACK 98 AUDIO
    TITLE "7:cjc057_08217"
    INDEX 01 01:53:49
  TRACK 99 AUDIO
    TITLE "0:"
    INDEX 01 01:54:56
  TRACK 100 AUDIO
    TITLE "8:cjc057_08218"
    INDEX 01 01:55:16
  TRACK 101 AUDIO
    TITLE "0:"
    INDEX 01 01:57:45
  TRACK 102 AUDIO
    TITLE "7:cjc057_08219"
    INDEX 01 01:58:52
  TRACK 103 AUDIO
    TITLE "0:"
    INDEX 01 01:59:57
  TRACK 104 AUDIO
    TITLE "8:cjc057_08220"
    INDEX 01 02:00:18
  TRACK 105 AUDIO
    TITLE "0:"
    INDEX 01 02:01:09
  TRACK 106 AUDIO
    TITLE "7:cjc057_08221"
    INDEX 01 02:02:17
  TRACK 107 AUDIO
    TITLE "0:"
    INDEX 01 02:03:30
  TRACK 108 AUDIO
    TITLE "8:cjc057_08222"
    INDEX 01 02:03:65
  TRACK 109 AUDIO
    TITLE "0:"
    INDEX 01 02:06:05
  TRACK 110 AUDIO
    TITLE "7:cjc057_08223"
    INDEX 01 02:07:16
  TRACK 111 AUDIO
    TITLE "0:"
    INDEX 01 02:08:33
  TRACK 112 AUDIO
    TITLE "8:cjc057_08224"
    INDEX 01 02:08:66
  TRACK 113 AUDIO
    TITLE "0:"
    INDEX 01 02:11:51
